<svg width="40" height="40" viewBox="0 0 40 40" fill="none" xmlns="http://www.w3.org/2000/svg">
<path d="M28.3335 3.33331H11.6668C7.06446 3.33331 3.3335 7.06427 3.3335 11.6666V28.3333C3.3335 32.9357 7.06446 36.6666 11.6668 36.6666H28.3335C32.9359 36.6666 36.6668 32.9357 36.6668 28.3333V11.6666C36.6668 7.06427 32.9359 3.33331 28.3335 3.33331Z" stroke="#706262" stroke-width="2" stroke-linecap="round" stroke-linejoin="round"/>
<path d="M26.667 18.95C26.8727 20.3371 26.6358 21.7537 25.9899 22.9984C25.3441 24.243 24.3222 25.2524 23.0697 25.8828C21.8172 26.5132 20.3977 26.7327 19.0133 26.5099C17.6289 26.2871 16.3499 25.6335 15.3584 24.642C14.3669 23.6504 13.7132 22.3715 13.4904 20.987C13.2677 19.6026 13.4871 18.1832 14.1175 16.9306C14.748 15.6781 15.7573 14.6562 17.002 14.0104C18.2466 13.3646 19.6632 13.1277 21.0503 13.3333C22.4652 13.5432 23.7751 14.2025 24.7865 15.2139C25.7979 16.2253 26.4572 17.5351 26.667 18.95Z" stroke="#706262" stroke-width="2" stroke-linecap="round" stroke-linejoin="round"/>
<path d="M29.1665 10.8333H29.1832" stroke="#706262" stroke-width="2" stroke-linecap="round" stroke-linejoin="round"/>
</svg>
