<svg width="40" height="40" viewBox="0 0 40 40" fill="none" xmlns="http://www.w3.org/2000/svg">
<path d="M35.7332 18.4166L20.4165 33.7333C18.5401 35.6097 15.9951 36.6639 13.3415 36.6639C10.6879 36.6639 8.1429 35.6097 6.2665 33.7333C4.39009 31.8569 3.33594 29.3119 3.33594 26.6583C3.33594 24.0047 4.39009 21.4597 6.2665 19.5833L21.5832 4.26663C22.8341 3.0157 24.5307 2.31293 26.2998 2.31293C28.0689 2.31293 29.7656 3.0157 31.0165 4.26663C32.2674 5.51757 32.9702 7.21421 32.9702 8.9833C32.9702 10.7524 32.2674 12.449 31.0165 13.7L15.6832 29.0166C15.0577 29.6421 14.2094 29.9935 13.3248 29.9935C12.4403 29.9935 11.592 29.6421 10.9665 29.0166C10.341 28.3912 9.98964 27.5428 9.98964 26.6583C9.98964 25.7738 10.341 24.9254 10.9665 24.3L25.1165 10.1666" stroke="#706262" stroke-width="2" stroke-linecap="round" stroke-linejoin="round"/>
</svg>
