<svg width="35" height="41" viewBox="0 0 35 41" fill="none" xmlns="http://www.w3.org/2000/svg">
<mask id="path-1-outside-1" maskUnits="userSpaceOnUse" x="0" y="0" width="14" height="18" fill="black">
<rect fill="white" width="14" height="18"/>
<path d="M1.12294 9.13073C2.57916 9.31799 4.24207 9.21172 5.31426 8.1275C5.82465 7.61254 6.04898 6.94684 6.14694 6.25492C6.19984 5.8804 6.22385 5.50589 6.25324 5.13137L6.34826 3.90811L6.56525 1.11563H6.32034C6.39038 2.73167 6.46728 4.39545 7.14763 5.901C7.42716 6.53546 7.82461 7.11628 8.32073 7.61535C8.84748 8.1302 9.49588 8.51664 10.2114 8.74217C11.0676 9.01697 11.9826 9.08907 12.8809 9.09656L12.8481 8.8667C11.5814 9.08345 10.2148 9.34327 9.20435 10.1597C8.95464 10.3615 8.737 10.5969 8.55829 10.8587C8.35308 11.1746 8.18753 11.5126 8.06505 11.8656C7.78844 12.6247 7.5535 13.3971 7.36119 14.1797C7.13778 15.071 6.96252 15.9728 6.83611 16.8813L7.07661 16.85L6.51284 14.1347C6.35218 13.3614 6.21552 12.5716 5.88245 11.845C5.72382 11.4914 5.50464 11.1655 5.23393 10.8807C4.95534 10.6006 4.63871 10.3575 4.29252 10.1578C3.72515 9.82316 3.12266 9.54622 2.49491 9.33157C2.05212 9.17708 1.60541 9.03414 1.15478 8.90274C1.00343 8.85827 0.938771 9.08438 1.08963 9.12839C1.45601 9.2356 1.81995 9.35123 2.18143 9.47248C2.45278 9.5633 2.72414 9.65739 2.98864 9.7646C3.29511 9.89295 3.59387 10.0375 3.88352 10.1976C4.22921 10.3775 4.55257 10.5941 4.84748 10.8432C5.13583 11.0961 5.37496 11.3958 5.55378 11.7285C5.92212 12.4073 6.06466 13.176 6.21895 13.9189L6.84052 16.915C6.84843 16.9422 6.86641 16.9657 6.89111 16.9811C6.91581 16.9965 6.94553 17.0028 6.97473 16.9988C7.00371 16.9947 7.03023 16.9809 7.04967 16.9599C7.0691 16.939 7.0802 16.9121 7.08102 16.8841C7.302 15.3092 7.67268 13.7568 8.18848 12.2462C8.40988 11.596 8.6783 10.9621 9.20191 10.4776C9.65058 10.0619 10.2178 9.78145 10.8021 9.58249C11.4854 9.34842 12.2 9.21546 12.9122 9.09375C13.0509 9.06987 13.0141 8.86482 12.8799 8.86389C12.104 8.85733 11.3223 8.80209 10.5719 8.60407C9.85742 8.42478 9.1995 8.08153 8.65528 7.60411C7.56789 6.63131 7.03498 5.24232 6.79889 3.86645C6.64264 2.95825 6.60296 2.03554 6.56427 1.11704C6.56427 1.086 6.55137 1.05623 6.5284 1.03428C6.50544 1.01233 6.47429 1 6.44181 1C6.40934 1 6.37819 1.01233 6.35523 1.03428C6.33226 1.05623 6.31936 1.086 6.31936 1.11704L6.13176 3.53313C6.07152 4.30791 6.02254 5.08456 5.94808 5.8584C5.88343 6.53113 5.75216 7.22679 5.31133 7.77779C4.91948 8.26513 4.34101 8.60173 3.73217 8.78477C2.8897 9.03804 1.98844 9.01229 1.12245 8.90181C1.05633 8.89338 1.00049 8.96173 1 9.01885C1.00219 9.04879 1.01602 9.07687 1.03877 9.09758C1.06152 9.11828 1.09154 9.1301 1.12294 9.13073Z"/>
</mask>
<path d="M1.12294 9.13073C2.57916 9.31799 4.24207 9.21172 5.31426 8.1275C5.82465 7.61254 6.04898 6.94684 6.14694 6.25492C6.19984 5.8804 6.22385 5.50589 6.25324 5.13137L6.34826 3.90811L6.56525 1.11563H6.32034C6.39038 2.73167 6.46728 4.39545 7.14763 5.901C7.42716 6.53546 7.82461 7.11628 8.32073 7.61535C8.84748 8.1302 9.49588 8.51664 10.2114 8.74217C11.0676 9.01697 11.9826 9.08907 12.8809 9.09656L12.8481 8.8667C11.5814 9.08345 10.2148 9.34327 9.20435 10.1597C8.95464 10.3615 8.737 10.5969 8.55829 10.8587C8.35308 11.1746 8.18753 11.5126 8.06505 11.8656C7.78844 12.6247 7.5535 13.3971 7.36119 14.1797C7.13778 15.071 6.96252 15.9728 6.83611 16.8813L7.07661 16.85L6.51284 14.1347C6.35218 13.3614 6.21552 12.5716 5.88245 11.845C5.72382 11.4914 5.50464 11.1655 5.23393 10.8807C4.95534 10.6006 4.63871 10.3575 4.29252 10.1578C3.72515 9.82316 3.12266 9.54622 2.49491 9.33157C2.05212 9.17708 1.60541 9.03414 1.15478 8.90274C1.00343 8.85827 0.938771 9.08438 1.08963 9.12839C1.45601 9.2356 1.81995 9.35123 2.18143 9.47248C2.45278 9.5633 2.72414 9.65739 2.98864 9.7646C3.29511 9.89295 3.59387 10.0375 3.88352 10.1976C4.22921 10.3775 4.55257 10.5941 4.84748 10.8432C5.13583 11.0961 5.37496 11.3958 5.55378 11.7285C5.92212 12.4073 6.06466 13.176 6.21895 13.9189L6.84052 16.915C6.84843 16.9422 6.86641 16.9657 6.89111 16.9811C6.91581 16.9965 6.94553 17.0028 6.97473 16.9988C7.00371 16.9947 7.03023 16.9809 7.04967 16.9599C7.0691 16.939 7.0802 16.9121 7.08102 16.8841C7.302 15.3092 7.67268 13.7568 8.18848 12.2462C8.40988 11.596 8.6783 10.9621 9.20191 10.4776C9.65058 10.0619 10.2178 9.78145 10.8021 9.58249C11.4854 9.34842 12.2 9.21546 12.9122 9.09375C13.0509 9.06987 13.0141 8.86482 12.8799 8.86389C12.104 8.85733 11.3223 8.80209 10.5719 8.60407C9.85742 8.42478 9.1995 8.08153 8.65528 7.60411C7.56789 6.63131 7.03498 5.24232 6.79889 3.86645C6.64264 2.95825 6.60296 2.03554 6.56427 1.11704C6.56427 1.086 6.55137 1.05623 6.5284 1.03428C6.50544 1.01233 6.47429 1 6.44181 1C6.40934 1 6.37819 1.01233 6.35523 1.03428C6.33226 1.05623 6.31936 1.086 6.31936 1.11704L6.13176 3.53313C6.07152 4.30791 6.02254 5.08456 5.94808 5.8584C5.88343 6.53113 5.75216 7.22679 5.31133 7.77779C4.91948 8.26513 4.34101 8.60173 3.73217 8.78477C2.8897 9.03804 1.98844 9.01229 1.12245 8.90181C1.05633 8.89338 1.00049 8.96173 1 9.01885C1.00219 9.04879 1.01602 9.07687 1.03877 9.09758C1.06152 9.11828 1.09154 9.1301 1.12294 9.13073Z" fill="#E05344"/>
<path d="M1.12294 9.13073L1.18671 8.63481L1.15993 8.63137L1.13293 8.63083L1.12294 9.13073ZM5.31426 8.1275L4.95914 7.77552L4.95875 7.77592L5.31426 8.1275ZM6.14694 6.25492L6.64201 6.32501L6.64203 6.32485L6.14694 6.25492ZM6.25324 5.13137L6.7517 5.17049L6.75173 5.1701L6.25324 5.13137ZM6.34826 3.90811L5.84976 3.86938L5.84976 3.86939L6.34826 3.90811ZM6.56525 1.11563L7.06374 1.15437L7.10561 0.615632H6.56525V1.11563ZM6.32034 1.11563V0.615632H5.7982L5.82081 1.13728L6.32034 1.11563ZM7.14763 5.901L7.60521 5.6994L7.60327 5.6951L7.14763 5.901ZM8.32073 7.61535L7.9661 7.96789L7.97124 7.97292L8.32073 7.61535ZM10.2114 8.74217L10.3642 8.26609L10.3617 8.2653L10.2114 8.74217ZM12.8809 9.09656L12.8767 9.59654L13.458 9.60139L13.3759 9.0259L12.8809 9.09656ZM12.8481 8.8667L13.3431 8.79604L13.2704 8.28716L12.7637 8.37386L12.8481 8.8667ZM9.20435 10.1597L8.89011 9.77079L8.89011 9.7708L9.20435 10.1597ZM8.55829 10.8587L8.14526 10.5766L8.13896 10.5863L8.55829 10.8587ZM8.06505 11.8656L8.53489 12.0368L8.53743 12.0295L8.06505 11.8656ZM7.36119 14.1797L7.84619 14.3012L7.84674 14.299L7.36119 14.1797ZM6.83611 16.8813L6.34088 16.8124L6.25052 17.4619L6.90078 17.3771L6.83611 16.8813ZM7.07661 16.85L7.14127 17.3458L7.67574 17.2761L7.56617 16.7483L7.07661 16.85ZM6.51284 14.1347L7.0024 14.0331L7.00239 14.033L6.51284 14.1347ZM5.88245 11.845L5.42623 12.0497L5.42793 12.0534L5.88245 11.845ZM5.23393 10.8807L5.59644 10.5361L5.58842 10.528L5.23393 10.8807ZM4.29252 10.1578L4.03847 10.5885L4.04274 10.591L4.29252 10.1578ZM2.49491 9.33157L2.33019 9.80367L2.33313 9.80467L2.49491 9.33157ZM1.15478 8.90274L1.01382 9.38246L1.01482 9.38276L1.15478 8.90274ZM1.08963 9.12839L1.23005 8.64851L1.22965 8.64839L1.08963 9.12839ZM2.18143 9.47248L2.02242 9.94652L2.02273 9.94662L2.18143 9.47248ZM2.98864 9.7646L3.1818 9.30338L3.17645 9.30121L2.98864 9.7646ZM3.88352 10.1976L3.64156 10.6354L3.65272 10.6412L3.88352 10.1976ZM4.84748 10.8432L5.17719 10.4672L5.17014 10.4613L4.84748 10.8432ZM5.55378 11.7285L5.11337 11.9652L5.11431 11.9669L5.55378 11.7285ZM6.21895 13.9189L6.70853 13.8173L6.70851 13.8172L6.21895 13.9189ZM6.84052 16.915L6.35094 17.0166L6.35495 17.0359L6.36047 17.0548L6.84052 16.915ZM6.97473 16.9988L7.04239 17.4942L7.04582 17.4938L6.97473 16.9988ZM7.08102 16.8841L6.58587 16.8147L6.58205 16.8419L6.58124 16.8694L7.08102 16.8841ZM8.18848 12.2462L8.66166 12.4078L8.6618 12.4074L8.18848 12.2462ZM9.20191 10.4776L9.5415 10.8446L9.54174 10.8443L9.20191 10.4776ZM10.8021 9.58249L10.9633 10.0558L10.9642 10.0555L10.8021 9.58249ZM12.9122 9.09375L12.9965 9.5866L12.9971 9.58649L12.9122 9.09375ZM12.8799 8.86389L12.8757 9.36387L12.8764 9.36388L12.8799 8.86389ZM10.5719 8.60407L10.6995 8.12058L10.6936 8.1191L10.5719 8.60407ZM8.65528 7.60411L8.32189 7.97677L8.32555 7.97998L8.65528 7.60411ZM6.79889 3.86645L7.29169 3.78189L7.29165 3.78167L6.79889 3.86645ZM6.56427 1.11704H6.06427V1.12756L6.06471 1.13808L6.56427 1.11704ZM6.44181 1V0.5V1ZM6.31936 1.11704L6.81786 1.15574L6.81936 1.13642V1.11704H6.31936ZM6.13176 3.53313L6.63026 3.57189L6.63026 3.57184L6.13176 3.53313ZM5.94808 5.8584L5.45038 5.81052L5.45038 5.81057L5.94808 5.8584ZM5.31133 7.77779L5.70099 8.09111L5.70175 8.09015L5.31133 7.77779ZM3.73217 8.78477L3.87612 9.2636L3.87613 9.2636L3.73217 8.78477ZM1.12245 8.90181L1.18573 8.40583L1.18566 8.40582L1.12245 8.90181ZM1 9.01885L0.500018 9.01456L0.499843 9.03499L0.501335 9.05536L1 9.01885ZM1.05917 9.62665C2.54848 9.81816 4.42377 9.73906 5.66978 8.47907L4.95875 7.77592C4.06036 8.68438 2.60983 8.81782 1.18671 8.63481L1.05917 9.62665ZM5.66939 8.47947C6.28499 7.85836 6.53612 7.0729 6.64201 6.32501L5.65188 6.18483C5.56184 6.82077 5.36431 7.36672 4.95914 7.77553L5.66939 8.47947ZM6.64203 6.32485C6.69771 5.93062 6.72311 5.53486 6.7517 5.17049L5.75477 5.09226C5.72458 5.47692 5.70197 5.83019 5.65186 6.18499L6.64203 6.32485ZM6.75173 5.1701L6.84676 3.94684L5.84976 3.86939L5.75474 5.09265L6.75173 5.1701ZM6.84675 3.94685L7.06374 1.15437L6.06675 1.0769L5.84976 3.86938L6.84675 3.94685ZM6.56525 0.615632H6.32034V1.61563H6.56525V0.615632ZM5.82081 1.13728C5.89015 2.7372 5.96549 4.4992 6.692 6.1069L7.60327 5.6951C6.96908 4.2917 6.89061 2.72614 6.81987 1.09398L5.82081 1.13728ZM6.69007 6.1026C6.99474 6.79411 7.42738 7.4259 7.96613 7.96785L8.67533 7.26284C8.22184 6.80666 7.85959 6.27681 7.60519 5.69941L6.69007 6.1026ZM7.97124 7.97292C8.55517 8.54366 9.27218 8.97038 10.0611 9.21904L10.3617 8.2653C9.71959 8.06291 9.13979 7.71674 8.67022 7.25778L7.97124 7.97292ZM10.0586 9.21825C10.9856 9.51579 11.9593 9.58889 12.8767 9.59654L12.8851 8.59657C12.0058 8.58924 11.1496 8.51816 10.3642 8.26609L10.0586 9.21825ZM13.3759 9.0259L13.3431 8.79604L12.3531 8.93736L12.3859 9.16722L13.3759 9.0259ZM12.7637 8.37386C11.5168 8.58724 10.0176 8.85983 8.89011 9.77079L9.51858 10.5486C10.4121 9.82671 11.646 9.57966 12.9324 9.35953L12.7637 8.37386ZM8.89011 9.7708C8.60296 10.0028 8.35194 10.2742 8.14537 10.5767L8.97121 11.1406C9.12206 10.9197 9.30631 10.7201 9.51859 10.5486L8.89011 9.7708ZM8.13896 10.5863C7.91194 10.9359 7.7285 11.3103 7.59268 11.7017L8.53743 12.0295C8.64656 11.715 8.79422 11.4134 8.97762 11.131L8.13896 10.5863ZM7.59527 11.6944C7.31248 12.4705 7.07227 13.2602 6.87564 14.0603L7.84674 14.299C8.03473 13.5341 8.2644 12.779 8.53483 12.0368L7.59527 11.6944ZM6.87619 14.0581C6.64844 14.9668 6.46976 15.8861 6.34088 16.8124L7.33134 16.9502C7.45528 16.0594 7.62712 15.1752 7.84619 14.3012L6.87619 14.0581ZM6.90078 17.3771L7.14127 17.3458L7.01195 16.3542L6.77145 16.3855L6.90078 17.3771ZM7.56617 16.7483L7.0024 14.0331L6.02328 14.2364L6.58705 16.9516L7.56617 16.7483ZM7.00239 14.033C6.84731 13.2865 6.69951 12.4275 6.33697 11.6367L5.42793 12.0534C5.73154 12.7157 5.85705 13.4362 6.02329 14.2364L7.00239 14.033ZM6.33866 11.6404C6.15656 11.2344 5.90545 10.8614 5.59634 10.5362L4.87152 11.2251C5.10383 11.4695 5.29107 11.7483 5.42624 12.0497L6.33866 11.6404ZM5.58842 10.528C5.27827 10.2162 4.92635 9.94617 4.5423 9.7247L4.04274 10.591C4.35107 10.7688 4.6324 10.9849 4.87945 11.2333L5.58842 10.528ZM4.54656 9.72718C3.94975 9.37513 3.31632 9.08402 2.65668 8.85846L2.33313 9.80467C2.929 10.0084 3.50056 10.2712 4.03848 10.5885L4.54656 9.72718ZM2.65962 8.85947C2.20864 8.70213 1.75368 8.55655 1.29474 8.42273L1.01482 9.38276C1.45714 9.51173 1.89559 9.65203 2.3302 9.80366L2.65962 8.85947ZM1.29574 8.42303C1.12869 8.37394 0.947355 8.39346 0.794367 8.48916C0.651795 8.57834 0.566028 8.71308 0.528322 8.84431C0.490607 8.97556 0.492028 9.13421 0.563967 9.28436C0.641095 9.44534 0.782114 9.55953 0.949621 9.60839L1.22965 8.64839C1.32172 8.67525 1.41425 8.74468 1.4658 8.85227C1.51216 8.94904 1.51092 9.04568 1.48943 9.12047C1.46795 9.19522 1.4173 9.27902 1.32471 9.33694C1.22169 9.40138 1.1052 9.40931 1.01382 9.38246L1.29574 8.42303ZM0.949218 9.60827C1.3083 9.71334 1.66595 9.82695 2.02242 9.94652L2.34043 8.99843C1.97394 8.8755 1.60373 8.75785 1.23005 8.64851L0.949218 9.60827ZM2.02273 9.94662C2.29175 10.0367 2.55117 10.1268 2.80082 10.228L3.17645 9.30121C2.89711 9.18799 2.61381 9.08993 2.34012 8.99833L2.02273 9.94662ZM2.79549 10.2258C3.08537 10.3472 3.36785 10.4839 3.64164 10.6352L4.12541 9.76004C3.81989 9.59115 3.50486 9.43872 3.18179 9.30341L2.79549 10.2258ZM3.65272 10.6412C3.96591 10.8041 4.25842 11.0001 4.52481 11.2252L5.17014 10.4613C4.84672 10.188 4.4925 9.95088 4.11433 9.75409L3.65272 10.6412ZM4.51782 11.2191C4.76193 11.4332 4.96329 11.686 5.11337 11.9652L5.99419 11.4917C5.78663 11.1056 5.50972 10.7589 5.17713 10.4673L4.51782 11.2191ZM5.11431 11.9669C5.44003 12.5672 5.57015 13.2538 5.7294 14.0206L6.70851 13.8172C6.55917 13.0982 6.40421 12.2474 5.99325 11.49L5.11431 11.9669ZM5.72938 14.0205L6.35094 17.0166L7.3301 16.8135L6.70853 13.8173L5.72938 14.0205ZM6.36047 17.0548C6.40383 17.2038 6.50071 17.3268 6.6263 17.4052L7.15592 16.557C7.23212 16.6046 7.29303 16.6806 7.32057 16.7752L6.36047 17.0548ZM6.6263 17.4052C6.75142 17.4833 6.899 17.5138 7.04239 17.4942L6.90707 16.5034C6.99205 16.4918 7.0802 16.5097 7.15592 16.557L6.6263 17.4052ZM7.04582 17.4938C7.18523 17.4737 7.31708 17.407 7.4164 17.2998L6.68293 16.6201C6.74339 16.5548 6.82219 16.5156 6.90364 16.5039L7.04582 17.4938ZM7.4164 17.2998C7.51618 17.1921 7.57634 17.0505 7.5808 16.8988L6.58124 16.8694C6.58405 16.7738 6.62202 16.6858 6.68293 16.6201L7.4164 17.2998ZM7.57617 16.9536C7.79274 15.4101 8.15604 13.8886 8.66166 12.4078L7.71531 12.0847C7.18932 13.6251 6.81126 15.2083 6.58587 16.8147L7.57617 16.9536ZM8.6618 12.4074C8.8787 11.7703 9.11488 11.2393 9.5415 10.8446L8.86232 10.1106C8.24172 10.6849 7.94106 11.4216 7.71517 12.0851L8.6618 12.4074ZM9.54174 10.8443C9.92055 10.4934 10.4165 10.242 10.9633 10.0558L10.641 9.10917C10.0191 9.32092 9.3806 9.63038 8.86208 10.1108L9.54174 10.8443ZM10.9642 10.0555C11.6055 9.83581 12.2845 9.70828 12.9965 9.5866L12.828 8.60089C12.1156 8.72264 11.3653 8.86103 10.6401 9.10948L10.9642 10.0555ZM12.9971 9.58649C13.1641 9.55773 13.3161 9.46264 13.41 9.31057C13.497 9.16956 13.512 9.01643 13.4922 8.89178C13.4544 8.65378 13.2493 8.36645 12.8834 8.3639L12.8764 9.36388C12.6447 9.36226 12.5251 9.17792 12.5046 9.04865C12.4934 8.97837 12.4999 8.88103 12.5591 8.78521C12.6251 8.67833 12.7297 8.61782 12.8274 8.601L12.9971 9.58649ZM12.8841 8.36391C12.126 8.3575 11.3917 8.30328 10.6995 8.12062L10.4443 9.08752C11.2529 9.30091 12.0821 9.35717 12.8757 9.36387L12.8841 8.36391ZM10.6936 8.1191C10.0547 7.95879 9.46846 7.65234 8.98501 7.22824L8.32555 7.97998C8.93055 8.51071 9.6601 8.89077 10.4502 9.08903L10.6936 8.1191ZM8.98865 7.23147C8.01823 6.36331 7.51778 5.09949 7.29169 3.78189L6.30609 3.95101C6.55218 5.38516 7.11756 6.89931 8.3219 7.97675L8.98865 7.23147ZM7.29165 3.78167C7.14173 2.91026 7.10273 2.01948 7.06382 1.09599L6.06471 1.13808C6.10319 2.05159 6.14355 3.00624 6.30613 3.95122L7.29165 3.78167ZM7.06427 1.11704C7.06427 0.945926 6.99295 0.78663 6.87387 0.672821L6.18293 1.39574C6.10979 1.32582 6.06427 1.22607 6.06427 1.11704H7.06427ZM6.87387 0.672821C6.75557 0.559758 6.59977 0.5 6.44181 0.5V1.5C6.34881 1.5 6.2553 1.4649 6.18293 1.39574L6.87387 0.672821ZM6.44181 0.5C6.28383 0.5 6.12804 0.559773 6.00976 0.672821L6.7007 1.39574C6.62835 1.46489 6.53484 1.5 6.44181 1.5V0.5ZM6.00976 0.672821C5.89073 0.786588 5.81936 0.945866 5.81936 1.11704H6.81936C6.81936 1.22613 6.7738 1.32587 6.7007 1.39574L6.00976 0.672821ZM5.82086 1.07833L5.63326 3.49442L6.63026 3.57184L6.81786 1.15574L5.82086 1.07833ZM5.63327 3.49437C5.57224 4.27914 5.52428 5.04248 5.45038 5.81052L6.44579 5.90629C6.5208 5.12664 6.57079 4.33667 6.63026 3.57189L5.63327 3.49437ZM5.45038 5.81057C5.38729 6.46697 5.26504 7.03529 4.9209 7.46544L5.70175 8.09015C6.23928 7.41829 6.37957 6.59529 6.44579 5.90624L5.45038 5.81057ZM4.92167 7.46448C4.60789 7.85472 4.12567 8.14436 3.58822 8.30594L3.87613 9.2636C4.55635 9.05909 5.23106 8.67555 5.70099 8.09111L4.92167 7.46448ZM3.58823 8.30594C2.84485 8.52942 2.02552 8.51297 1.18573 8.40583L1.05918 9.39779C1.95136 9.51161 2.93454 9.54666 3.87612 9.2636L3.58823 8.30594ZM1.18566 8.40582C0.95463 8.37638 0.775848 8.48558 0.676232 8.58916C0.580714 8.68848 0.501535 8.83774 0.500018 9.01456L1.49998 9.02313C1.49896 9.14283 1.44794 9.22937 1.39699 9.28234C1.34195 9.33957 1.22415 9.41881 1.05925 9.3978L1.18566 8.40582ZM0.501335 9.05536C0.513134 9.21648 0.58731 9.36278 0.702234 9.46737L1.3753 8.72779C1.44473 8.79097 1.49125 8.8811 1.49866 8.98233L0.501335 9.05536ZM0.702234 9.46737C0.816558 9.57141 0.96336 9.62764 1.11295 9.63063L1.13293 8.63083C1.21972 8.63257 1.30647 8.66515 1.3753 8.72779L0.702234 9.46737Z" fill="#E05344" mask="url(#path-1-outside-1)"/>
<mask id="path-3-outside-2" maskUnits="userSpaceOnUse" x="6" y="23" width="13" height="18" fill="black">
<rect fill="white" x="6" y="23" width="13" height="18"/>
<path d="M7.1127 32.1307C8.44756 32.318 9.97189 32.2117 10.9547 31.1275C11.4226 30.6125 11.6282 29.9468 11.718 29.2549C11.7665 28.8804 11.7885 28.5059 11.8155 28.1314L11.9026 26.9081L12.1015 24.1156H11.877C11.9412 25.7317 12.0117 27.3955 12.6353 28.901C12.8916 29.5355 13.2559 30.1163 13.7107 30.6153C14.1935 31.1302 14.7879 31.5166 15.4438 31.7422C16.2286 32.017 17.0674 32.0891 17.8908 32.0966L17.8607 31.8667C16.6996 32.0834 15.4469 32.3433 14.5207 33.1597C14.2918 33.3615 14.0923 33.5969 13.9284 33.8587C13.7403 34.1746 13.5886 34.5126 13.4763 34.8656C13.2227 35.6247 13.0074 36.3971 12.8311 37.1797C12.6263 38.071 12.4656 38.9728 12.3498 39.8813L12.5702 39.85L12.0534 37.1347C11.9062 36.3614 11.7809 35.5716 11.4756 34.845C11.3302 34.4914 11.1293 34.1655 10.8811 33.8807C10.6257 33.6006 10.3355 33.3575 10.0181 33.1578C9.49806 32.8232 8.94577 32.5462 8.37033 32.3316C7.96444 32.1771 7.55496 32.0341 7.14188 31.9027C7.00314 31.8583 6.94387 32.0844 7.08216 32.1284C7.41801 32.2356 7.75162 32.3512 8.08297 32.4725C8.33172 32.5633 8.58046 32.6574 8.82292 32.7646C9.10385 32.893 9.37771 33.0375 9.64323 33.1976C9.96011 33.3775 10.2565 33.5941 10.5269 33.8432C10.7912 34.0961 11.0104 34.3958 11.1743 34.7285C11.5119 35.4073 11.6426 36.176 11.784 36.9189L12.3538 39.915C12.3611 39.9422 12.3775 39.9657 12.4002 39.9811C12.4228 39.9965 12.4501 40.0028 12.4768 39.9988C12.5034 39.9947 12.5277 39.9809 12.5455 39.9599C12.5633 39.939 12.5735 39.9121 12.5743 39.8841C12.7768 38.3092 13.1166 36.7568 13.5894 35.2462C13.7924 34.596 14.0384 33.9621 14.5184 33.4776C14.9297 33.0619 15.4496 32.7815 15.9853 32.5825C16.6116 32.3484 17.2667 32.2155 17.9196 32.0937C18.0466 32.0699 18.0129 31.8648 17.8899 31.8639C17.1787 31.8573 16.4621 31.8021 15.7743 31.6041C15.1193 31.4248 14.5162 31.0815 14.0173 30.6041C13.0206 29.6313 12.5321 28.2423 12.3156 26.8664C12.1724 25.9582 12.136 25.0355 12.1006 24.117C12.1006 24.086 12.0888 24.0562 12.0677 24.0343C12.0467 24.0123 12.0181 24 11.9883 24C11.9586 24 11.93 24.0123 11.909 24.0343C11.8879 24.0562 11.8761 24.086 11.8761 24.117L11.7041 26.5331C11.6489 27.3079 11.604 28.0846 11.5357 28.8584C11.4765 29.5311 11.3561 30.2268 10.9521 30.7778C10.5929 31.2651 10.0626 31.6017 9.50449 31.7848C8.73222 32.038 7.90607 32.0123 7.11225 31.9018C7.05163 31.8934 7.00045 31.9617 7 32.0188C7.00201 32.0488 7.01469 32.0769 7.03554 32.0976C7.05639 32.1183 7.08391 32.1301 7.1127 32.1307Z"/>
</mask>
<path d="M7.1127 32.1307C8.44756 32.318 9.97189 32.2117 10.9547 31.1275C11.4226 30.6125 11.6282 29.9468 11.718 29.2549C11.7665 28.8804 11.7885 28.5059 11.8155 28.1314L11.9026 26.9081L12.1015 24.1156H11.877C11.9412 25.7317 12.0117 27.3955 12.6353 28.901C12.8916 29.5355 13.2559 30.1163 13.7107 30.6153C14.1935 31.1302 14.7879 31.5166 15.4438 31.7422C16.2286 32.017 17.0674 32.0891 17.8908 32.0966L17.8607 31.8667C16.6996 32.0834 15.4469 32.3433 14.5207 33.1597C14.2918 33.3615 14.0923 33.5969 13.9284 33.8587C13.7403 34.1746 13.5886 34.5126 13.4763 34.8656C13.2227 35.6247 13.0074 36.3971 12.8311 37.1797C12.6263 38.071 12.4656 38.9728 12.3498 39.8813L12.5702 39.85L12.0534 37.1347C11.9062 36.3614 11.7809 35.5716 11.4756 34.845C11.3302 34.4914 11.1293 34.1655 10.8811 33.8807C10.6257 33.6006 10.3355 33.3575 10.0181 33.1578C9.49806 32.8232 8.94577 32.5462 8.37033 32.3316C7.96444 32.1771 7.55496 32.0341 7.14188 31.9027C7.00314 31.8583 6.94387 32.0844 7.08216 32.1284C7.41801 32.2356 7.75162 32.3512 8.08297 32.4725C8.33172 32.5633 8.58046 32.6574 8.82292 32.7646C9.10385 32.893 9.37771 33.0375 9.64323 33.1976C9.96011 33.3775 10.2565 33.5941 10.5269 33.8432C10.7912 34.0961 11.0104 34.3958 11.1743 34.7285C11.5119 35.4073 11.6426 36.176 11.784 36.9189L12.3538 39.915C12.3611 39.9422 12.3775 39.9657 12.4002 39.9811C12.4228 39.9965 12.4501 40.0028 12.4768 39.9988C12.5034 39.9947 12.5277 39.9809 12.5455 39.9599C12.5633 39.939 12.5735 39.9121 12.5743 39.8841C12.7768 38.3092 13.1166 36.7568 13.5894 35.2462C13.7924 34.596 14.0384 33.9621 14.5184 33.4776C14.9297 33.0619 15.4496 32.7815 15.9853 32.5825C16.6116 32.3484 17.2667 32.2155 17.9196 32.0937C18.0466 32.0699 18.0129 31.8648 17.8899 31.8639C17.1787 31.8573 16.4621 31.8021 15.7743 31.6041C15.1193 31.4248 14.5162 31.0815 14.0173 30.6041C13.0206 29.6313 12.5321 28.2423 12.3156 26.8664C12.1724 25.9582 12.136 25.0355 12.1006 24.117C12.1006 24.086 12.0888 24.0562 12.0677 24.0343C12.0467 24.0123 12.0181 24 11.9883 24C11.9586 24 11.93 24.0123 11.909 24.0343C11.8879 24.0562 11.8761 24.086 11.8761 24.117L11.7041 26.5331C11.6489 27.3079 11.604 28.0846 11.5357 28.8584C11.4765 29.5311 11.3561 30.2268 10.9521 30.7778C10.5929 31.2651 10.0626 31.6017 9.50449 31.7848C8.73222 32.038 7.90607 32.0123 7.11225 31.9018C7.05163 31.8934 7.00045 31.9617 7 32.0188C7.00201 32.0488 7.01469 32.0769 7.03554 32.0976C7.05639 32.1183 7.08391 32.1301 7.1127 32.1307Z" fill="#E05344"/>
<path d="M7.1127 32.1307L7.18216 31.6356L7.15302 31.6315L7.1236 31.6308L7.1127 32.1307ZM10.9547 31.1275L10.5847 30.7913L10.5843 30.7917L10.9547 31.1275ZM11.718 29.2549L12.2139 29.3193L12.2139 29.3191L11.718 29.2549ZM11.8155 28.1314L12.3142 28.1672L12.3142 28.1669L11.8155 28.1314ZM11.9026 26.9081L11.4038 26.8726L11.4038 26.8726L11.9026 26.9081ZM12.1015 24.1156L12.6002 24.1512L12.6384 23.6156H12.1015V24.1156ZM11.877 24.1156V23.6156H11.3567L11.3774 24.1355L11.877 24.1156ZM12.6353 28.901L13.099 28.7138L13.0973 28.7097L12.6353 28.901ZM13.7107 30.6153L13.3411 30.9522L13.346 30.9574L13.7107 30.6153ZM15.4438 31.7422L15.609 31.2703L15.6064 31.2693L15.4438 31.7422ZM17.8908 32.0966L17.8863 32.5965L18.4612 32.6018L18.3866 32.0317L17.8908 32.0966ZM17.8607 31.8667L18.3565 31.8018L18.288 31.2783L17.769 31.3752L17.8607 31.8667ZM14.5207 33.1597L14.19 32.7846L14.19 32.7846L14.5207 33.1597ZM13.9284 33.8587L13.5045 33.5933L13.4988 33.6029L13.9284 33.8587ZM13.4763 34.8656L13.9506 35.0241L13.9528 35.0172L13.4763 34.8656ZM12.8311 37.1797L13.3184 37.2916L13.3189 37.2895L12.8311 37.1797ZM12.3498 39.8813L11.8538 39.8181L11.7708 40.4687L12.4202 40.3763L12.3498 39.8813ZM12.5702 39.85L12.6407 40.345L13.1594 40.2712L13.0614 39.7565L12.5702 39.85ZM12.0534 37.1347L12.5446 37.0412L12.5446 37.0412L12.0534 37.1347ZM11.4756 34.845L11.0131 35.0352L11.0146 35.0387L11.4756 34.845ZM10.8811 33.8807L11.2582 33.5521L11.2506 33.5438L10.8811 33.8807ZM10.0181 33.1578L9.74755 33.5783L9.75189 33.5811L10.0181 33.1578ZM8.37033 32.3316L8.19247 32.7989L8.19558 32.8L8.37033 32.3316ZM7.14188 31.9027L6.98926 32.3789L6.99032 32.3792L7.14188 31.9027ZM7.08216 32.1284L7.23421 31.6521L7.23378 31.6519L7.08216 32.1284ZM8.08297 32.4725L7.91116 32.942L7.91149 32.9421L8.08297 32.4725ZM8.82292 32.7646L9.03072 32.3098L9.02511 32.3073L8.82292 32.7646ZM9.64323 33.1976L9.38494 33.626L9.3964 33.6325L9.64323 33.1976ZM10.5269 33.8432L10.8725 33.4818L10.8657 33.4755L10.5269 33.8432ZM11.1743 34.7285L10.7258 34.9495L10.7266 34.9511L11.1743 34.7285ZM11.784 36.9189L12.2752 36.8255L12.2752 36.8254L11.784 36.9189ZM12.3538 39.915L11.8626 40.0084L11.866 40.0264L11.8707 40.044L12.3538 39.915ZM12.4768 39.9988L12.5505 40.4934L12.5542 40.4928L12.4768 39.9988ZM12.5743 39.8841L12.0784 39.8204L12.0751 39.8454L12.0745 39.8707L12.5743 39.8841ZM13.5894 35.2462L14.0666 35.3956L14.0667 35.3952L13.5894 35.2462ZM14.5184 33.4776L14.8736 33.8295L14.8739 33.8292L14.5184 33.4776ZM15.9853 32.5825L16.1594 33.0512L16.1603 33.0509L15.9853 32.5825ZM17.9196 32.0937L18.0112 32.5853L18.0119 32.5851L17.9196 32.0937ZM17.8899 31.8639L17.8853 32.3639L17.8861 32.3639L17.8899 31.8639ZM15.7743 31.6041L15.9126 31.1235L15.9063 31.1218L15.7743 31.6041ZM14.0173 30.6041L13.6681 30.962L13.6716 30.9653L14.0173 30.6041ZM12.3156 26.8664L12.8096 26.7888L12.8095 26.7886L12.3156 26.8664ZM12.1006 24.117H11.6006V24.1267L11.6009 24.1363L12.1006 24.117ZM11.9883 24V23.5V24ZM11.8761 24.117L12.3748 24.1525L12.3761 24.1348V24.117H11.8761ZM11.7041 26.5331L12.2029 26.5687L12.2029 26.5686L11.7041 26.5331ZM11.5357 28.8584L11.0377 28.8145L11.0377 28.8145L11.5357 28.8584ZM10.9521 30.7778L11.3545 31.0744L11.3552 31.0735L10.9521 30.7778ZM9.50449 31.7848L9.6603 32.2599L9.66032 32.2599L9.50449 31.7848ZM7.11225 31.9018L7.18117 31.4066L7.1811 31.4066L7.11225 31.9018ZM7 32.0188L6.50002 32.0149L6.49987 32.0336L6.50112 32.0523L7 32.0188ZM7.04324 32.6259C8.42061 32.8191 10.1685 32.7393 11.3252 31.4633L10.5843 30.7917C9.77532 31.6841 8.47451 31.8169 7.18216 31.6356L7.04324 32.6259ZM11.3248 31.4637C11.8901 30.8415 12.1178 30.0598 12.2139 29.3193L11.2222 29.1906C11.1387 29.8339 10.9551 30.3835 10.5847 30.7913L11.3248 31.4637ZM12.2139 29.3191C12.2647 28.9265 12.2879 28.5324 12.3142 28.1672L11.3168 28.0955C11.2891 28.4793 11.2683 28.8343 11.2222 29.1907L12.2139 29.3191ZM12.3142 28.1669L12.4013 26.9436L11.4038 26.8726L11.3167 28.0959L12.3142 28.1669ZM12.4013 26.9436L12.6002 24.1512L11.6027 24.0801L11.4038 26.8726L12.4013 26.9436ZM12.1015 23.6156H11.877V24.6156H12.1015V23.6156ZM11.3774 24.1355C11.441 25.7359 11.51 27.4908 12.1734 29.0924L13.0973 28.7097C12.5134 27.3001 12.4414 25.7274 12.3766 24.0958L11.3774 24.1355ZM12.1717 29.0882C12.4499 29.777 12.8458 30.4086 13.3411 30.9521L14.0802 30.2786C13.666 29.824 13.3333 29.2939 13.0989 28.7138L12.1717 29.0882ZM13.346 30.9574C13.8835 31.5306 14.5469 31.9625 15.2812 32.215L15.6064 31.2693C15.0289 31.0708 14.5035 30.7298 14.0754 30.2733L13.346 30.9574ZM15.2786 32.2141C16.1393 32.5155 17.0416 32.5889 17.8863 32.5965L17.8954 31.5966C17.0931 31.5893 16.3179 31.5185 15.609 31.2703L15.2786 32.2141ZM18.3866 32.0317L18.3565 31.8018L17.365 31.9316L17.395 32.1614L18.3866 32.0317ZM17.769 31.3752C16.6256 31.5886 15.2347 31.8639 14.19 32.7846L14.8513 33.5348C15.6592 32.8227 16.7736 32.5783 17.9525 32.3582L17.769 31.3752ZM14.19 32.7846C13.9245 33.0187 13.6937 33.2912 13.5046 33.5934L14.3523 34.1239C14.4908 33.9026 14.659 33.7043 14.8513 33.5348L14.19 32.7846ZM13.4988 33.6029C13.291 33.952 13.1236 34.3249 12.9998 34.7141L13.9528 35.0172C14.0536 34.7003 14.1896 34.3973 14.3581 34.1144L13.4988 33.6029ZM13.0021 34.7072C12.7432 35.4823 12.5233 36.2709 12.3433 37.0698L13.3189 37.2895C13.4915 36.5234 13.7023 35.7672 13.9505 35.024L13.0021 34.7072ZM12.3438 37.0677C12.1353 37.9752 11.9717 38.8932 11.8538 39.8181L12.8458 39.9446C12.9595 39.0524 13.1173 38.1669 13.3184 37.2916L12.3438 37.0677ZM12.4202 40.3763L12.6407 40.345L12.4998 39.3549L12.2793 39.3863L12.4202 40.3763ZM13.0614 39.7565L12.5446 37.0412L11.5623 37.2282L12.079 39.9434L13.0614 39.7565ZM12.5446 37.0412C12.4022 36.2932 12.2674 35.4387 11.9365 34.6513L11.0146 35.0387C11.2944 35.7045 11.4102 36.4295 11.5623 37.2283L12.5446 37.0412ZM11.938 34.6549C11.7721 34.2514 11.5425 33.8786 11.2581 33.5522L10.5041 34.2091C10.716 34.4523 10.8882 34.7314 11.0131 35.0352L11.938 34.6549ZM11.2506 33.5438C10.9652 33.2308 10.6403 32.9585 10.2844 32.7346L9.75189 33.5811C10.0307 33.7564 10.2863 33.9704 10.5116 34.2175L11.2506 33.5438ZM10.2887 32.7374C9.73872 32.3834 9.15433 32.0904 8.54508 31.8631L8.19558 32.8C8.73722 33.0021 9.2574 33.2629 9.74757 33.5783L10.2887 32.7374ZM8.54819 31.8643C8.13364 31.7065 7.71539 31.5605 7.29344 31.4263L6.99032 32.3792C7.39453 32.5078 7.79524 32.6477 8.19247 32.7989L8.54819 31.8643ZM7.29451 31.4266C7.11843 31.3702 6.92761 31.3944 6.77274 31.5001C6.63259 31.5957 6.55673 31.7331 6.52463 31.855C6.46366 32.0865 6.53355 32.4785 6.93055 32.6048L7.23378 31.6519C7.3396 31.6856 7.4269 31.7658 7.47144 31.8673C7.51083 31.957 7.50915 32.0433 7.49165 32.1097C7.47441 32.1752 7.43075 32.2617 7.33641 32.326C7.22736 32.4005 7.09597 32.4131 6.98926 32.3789L7.29451 31.4266ZM6.93012 32.6047C7.25818 32.7094 7.58511 32.8227 7.91116 32.942L8.25479 32.0029C7.91813 31.8797 7.57784 31.7618 7.23421 31.6521L6.93012 32.6047ZM7.91149 32.9421C8.15772 33.0321 8.39387 33.1216 8.62072 33.2219L9.02511 32.3073C8.76705 32.1932 8.50572 32.0945 8.25446 32.0028L7.91149 32.9421ZM8.61513 33.2194C8.87871 33.3398 9.13574 33.4755 9.38503 33.6258L9.90143 32.7695C9.61969 32.5996 9.329 32.4461 9.0307 32.3098L8.61513 33.2194ZM9.3964 33.6325C9.67985 33.7934 9.94544 33.9873 10.188 34.2109L10.8657 33.4755C10.5676 33.2008 10.2404 32.9617 9.89007 32.7628L9.3964 33.6325ZM10.1812 34.2045C10.4027 34.4164 10.5873 34.6685 10.7258 34.9495L11.6228 34.5075C11.4334 34.1231 11.1796 33.7757 10.8725 33.4819L10.1812 34.2045ZM10.7266 34.9511C11.027 35.555 11.147 36.2465 11.2929 37.0124L12.2752 36.8254C12.1382 36.1055 11.9969 35.2595 11.622 34.5058L10.7266 34.9511ZM11.2928 37.0123L11.8626 40.0084L12.845 39.8216L12.2752 36.8255L11.2928 37.0123ZM11.8707 40.044C11.908 40.1837 11.9941 40.3095 12.1187 40.3943L12.6817 39.5679C12.761 39.6219 12.8141 39.7007 12.8369 39.7861L11.8707 40.044ZM12.1187 40.3943C12.2439 40.4796 12.3977 40.5161 12.5505 40.4934L12.4031 39.5043C12.5024 39.4895 12.6018 39.5134 12.6817 39.5679L12.1187 40.3943ZM12.5542 40.4928C12.7021 40.4696 12.8332 40.3936 12.9266 40.2836L12.1645 39.6362C12.2222 39.5682 12.3047 39.5197 12.3994 39.5049L12.5542 40.4928ZM12.9266 40.2836C13.0196 40.1741 13.0703 40.0373 13.0741 39.8976L12.0745 39.8707C12.0767 39.7869 12.1071 39.7038 12.1645 39.6362L12.9266 40.2836ZM13.0702 39.9479C13.269 38.4019 13.6026 36.8782 14.0666 35.3956L13.1123 35.0969C12.6307 36.6355 12.2846 38.2165 12.0784 39.8204L13.0702 39.9479ZM14.0667 35.3952C14.2667 34.7545 14.4844 34.2224 14.8736 33.8295L14.1632 33.1257C13.5925 33.7018 13.3181 34.4374 13.1122 35.0973L14.0667 35.3952ZM14.8739 33.8292C15.2169 33.4825 15.6649 33.2349 16.1594 33.0512L15.8112 32.1138C15.2344 32.328 14.6425 32.6412 14.163 33.1259L14.8739 33.8292ZM16.1603 33.0509C16.7419 32.8335 17.3588 32.7069 18.0112 32.5853L17.8279 31.6022C17.1746 31.724 16.4813 31.8633 15.8102 32.1141L16.1603 33.0509ZM18.0119 32.5851C18.1897 32.5517 18.3362 32.4439 18.421 32.2942C18.4983 32.1576 18.5101 32.0135 18.4933 31.8982C18.4634 31.6927 18.2857 31.3669 17.8937 31.3639L17.8861 32.3639C17.6171 32.3618 17.5178 32.139 17.5037 32.0423C17.4949 31.9813 17.499 31.893 17.5507 31.8016C17.6098 31.6971 17.7129 31.6238 17.8272 31.6023L18.0119 32.5851ZM17.8945 31.3639C17.2029 31.3575 16.5377 31.3036 15.9126 31.1236L15.6359 32.0846C16.3865 32.3006 17.1545 32.3571 17.8853 32.3639L17.8945 31.3639ZM15.9063 31.1218C15.3329 30.9649 14.8029 30.6638 14.363 30.2429L13.6716 30.9653C14.2295 31.4992 14.9057 31.8847 15.6422 32.0863L15.9063 31.1218ZM14.3666 30.2463C13.4796 29.3807 13.0181 28.1143 12.8096 26.7888L11.8217 26.9441C12.0461 28.3703 12.5615 29.8819 13.6681 30.9619L14.3666 30.2463ZM12.8095 26.7886C12.6717 25.9142 12.6359 25.0209 12.6002 24.0977L11.6009 24.1363C11.6362 25.0502 11.6732 26.0023 11.8218 26.9443L12.8095 26.7886ZM12.6006 24.117C12.6006 23.96 12.541 23.8054 12.4286 23.6882L11.7068 24.3804C11.6366 24.3071 11.6006 24.212 11.6006 24.117H12.6006ZM12.4286 23.6882C12.3155 23.5703 12.1576 23.5 11.9883 23.5V24.5C11.8786 24.5 11.7778 24.4544 11.7068 24.3804L12.4286 23.6882ZM11.9883 23.5C11.819 23.5 11.6611 23.5703 11.5481 23.6882L12.2698 24.3804C12.1989 24.4543 12.0981 24.5 11.9883 24.5V23.5ZM11.5481 23.6882C11.4358 23.8053 11.3761 23.9599 11.3761 24.117H12.3761C12.3761 24.2121 12.3401 24.3071 12.2698 24.3804L11.5481 23.6882ZM11.3773 24.0815L11.2054 26.4976L12.2029 26.5686L12.3748 24.1525L11.3773 24.0815ZM11.2054 26.4976C11.1495 27.2815 11.1055 28.046 11.0377 28.8145L12.0338 28.9023C12.1025 28.1232 12.1483 27.3343 12.2029 26.5687L11.2054 26.4976ZM11.0377 28.8145C10.9795 29.4749 10.8661 30.0496 10.5489 30.4821L11.3552 31.0735C11.8462 30.404 11.9735 29.5873 12.0338 28.9023L11.0377 28.8145ZM10.5496 30.4811C10.2637 30.8689 9.82857 31.1523 9.34867 31.3097L9.66032 32.2599C10.2966 32.0512 10.922 31.6613 11.3545 31.0744L10.5496 30.4811ZM9.34868 31.3097C8.68321 31.5279 7.94625 31.5131 7.18117 31.4066L7.04332 32.397C7.8659 32.5115 8.78124 32.5482 9.6603 32.2599L9.34868 31.3097ZM7.1811 31.4066C6.93228 31.372 6.74975 31.5016 6.6585 31.6051C6.56834 31.7074 6.5013 31.8518 6.50002 32.0149L7.49998 32.0228C7.49915 32.1288 7.45792 32.2105 7.40862 32.2664C7.35824 32.3236 7.2316 32.4232 7.0434 32.397L7.1811 31.4066ZM6.50112 32.0523C6.51109 32.2008 6.57406 32.344 6.68326 32.4524L7.38781 31.7427C7.45531 31.8098 7.49293 31.8968 7.49888 31.9854L6.50112 32.0523ZM6.68326 32.4524C6.79303 32.5614 6.94195 32.6271 7.1018 32.6306L7.1236 31.6308C7.22588 31.6331 7.31975 31.6752 7.38781 31.7427L6.68326 32.4524Z" fill="#E05344" mask="url(#path-3-outside-2)"/>
<path d="M14.8009 15.8303C14.77 15.8896 14.7506 15.9574 14.75 16.0285L14.7499 16.0385L14.7506 16.0484C14.7547 16.1059 14.77 16.1613 14.7948 16.2119C14.7956 16.2136 14.7963 16.2152 14.797 16.2168C14.8482 16.3264 14.9439 16.4102 15.07 16.4481L14.8009 15.8303ZM14.8009 15.8303C14.8339 15.7605 14.8862 15.6952 14.9592 15.6483C15.0633 15.5815 15.1908 15.5645 15.317 15.6025L14.8009 15.8303ZM22.0108 14.7558C20.9369 15.8702 19.5169 16.3717 18.0499 16.5275C18.8445 16.8437 19.6111 17.2248 20.3416 17.667M22.0108 14.7558C22.0108 14.7558 22.0108 14.7558 22.0108 14.7558L21.8309 14.5822L22.0109 14.7556C22.0109 14.7557 22.0109 14.7557 22.0108 14.7558ZM22.0108 14.7558C22.8703 13.8657 23.2382 12.7246 23.397 11.5734L23.397 11.5733C23.4688 11.0519 23.5075 10.53 23.5456 10.0171C23.5526 9.92192 23.5597 9.82704 23.5669 9.73254L23.5669 9.73235L23.6699 8.372M23.6699 8.372C23.8563 9.28931 24.1208 10.1921 24.5045 11.0638M23.6699 8.372C23.6267 8.1594 23.5876 7.94602 23.5523 7.73206C23.5322 7.61003 23.5132 7.48782 23.4953 7.36546L30.8678 16.1621M23.6699 8.372L23.7174 7.74455L23.7467 7.35678C23.9287 8.59313 24.2244 9.80737 24.7338 10.9641M24.5045 11.0638C24.9591 12.1225 25.6053 13.0915 26.4116 13.9239L26.4116 13.9239L26.4141 13.9264C27.2762 14.7912 28.3369 15.44 29.507 15.8186M24.5045 11.0638C24.5043 11.0634 24.5042 11.0631 24.504 11.0627L24.7338 10.9641M24.5045 11.0638C24.5046 11.0641 24.5048 11.0645 24.505 11.0649L24.7338 10.9641M29.507 15.8186C29.9531 15.9656 30.4082 16.0775 30.8678 16.1621M29.507 15.8186C29.5068 15.8186 29.5067 15.8185 29.5065 15.8185L29.5847 15.581M29.507 15.8186C29.5073 15.8187 29.5075 15.8188 29.5078 15.8189L29.5847 15.581M30.8678 16.1621C29.7738 16.4892 28.72 16.9546 27.8306 17.6921L27.9902 17.8845L27.8306 17.6921C27.4166 18.0354 27.0557 18.4362 26.7592 18.8818L26.7591 18.8818L26.756 18.8866C26.4209 19.4163 26.1504 19.9829 25.9501 20.5747C25.5095 21.8158 25.1353 23.0787 24.8289 24.3581C24.667 25.021 24.521 25.6875 24.391 26.3569L23.9737 24.2944L23.9737 24.2943C23.9445 24.1502 23.9158 24.0052 23.8869 23.8594C23.6664 22.7473 23.4377 21.5937 22.9592 20.5221M30.8678 16.1621C31.0595 16.1048 31.2525 16.0517 31.446 16.0022C30.8141 15.9142 30.1901 15.7804 29.5847 15.581M22.9592 20.5221C22.9594 20.5224 22.9595 20.5227 22.9596 20.5231L22.7305 20.6232L22.9588 20.5212C22.9589 20.5215 22.9591 20.5218 22.9592 20.5221ZM22.9592 20.5221C22.6968 19.922 22.3344 19.3692 21.8872 18.8862L21.8872 18.8861L21.8832 18.8821C21.4269 18.4112 20.9083 18.0026 20.3416 17.667M20.3416 17.667C20.3419 17.6672 20.3423 17.6674 20.3426 17.6676L20.2132 17.8815L20.3405 17.6663C20.3408 17.6666 20.3412 17.6668 20.3416 17.667ZM18.0513 17.4727C17.6405 17.3019 17.2174 17.1512 16.7894 17.0042L16.7892 17.0042C16.2195 16.808 15.6465 16.6212 15.0702 16.4481L18.0513 17.4727ZM18.0513 17.4727C18.5277 17.6776 18.992 17.9082 19.4422 18.1636L19.4422 18.1637L19.4478 18.1667C19.9781 18.4499 20.474 18.7906 20.9263 19.1826C21.3602 19.5734 21.7198 20.0363 21.9887 20.5497L21.9891 20.5506C22.5166 21.5483 22.7428 22.6729 22.9722 23.8139C22.9875 23.8902 23.0029 23.9665 23.0183 24.0428L23.9855 28.8275L23.9487 29.0984L24.0834 29.0804C24.1138 29.1192 24.1507 29.1529 24.1927 29.1798C24.2824 29.2372 24.3897 29.2604 24.4947 29.2457L24.4965 29.2454C24.5991 29.2303 24.6941 29.1801 24.7642 29.1024C24.7974 29.0656 24.824 29.0238 24.8432 28.9787L24.9193 28.9685L24.8834 28.7912C25.2321 26.266 25.813 23.7768 26.619 21.354L26.6191 21.3538C26.9676 20.3032 27.3771 19.3245 28.1585 18.5823L28.1586 18.5822C28.8343 17.9397 29.6966 17.4991 30.6025 17.1825L30.6029 17.1824C31.6479 16.815 32.7441 16.6026 33.8547 16.4073L34.0989 16.4094L34.0866 16.3209C34.1278 16.2901 34.1628 16.2516 34.1897 16.2067C34.2471 16.1114 34.2586 16.0048 34.2445 15.9134C34.2239 15.7806 34.1358 15.6296 33.9812 15.5632L33.9714 15.4923L33.7661 15.5284C32.5622 15.516 31.3647 15.4251 30.2209 15.1153L30.2209 15.1153L30.2179 15.1145C29.1257 14.8332 28.1204 14.2949 27.289 13.5467C25.6254 12.0187 24.7972 9.82424 24.4282 7.61675L24.4281 7.61665C24.1852 6.16735 24.122 4.6924 24.061 3.20633L24.0813 2.9379H23.98C23.9647 2.91629 23.9475 2.89597 23.9284 2.87723C23.8448 2.79523 23.7324 2.75 23.6162 2.75C23.5 2.75 23.3876 2.79523 23.304 2.87723C23.2849 2.89597 23.2677 2.91629 23.2525 2.9379H23.1631L23.1728 3.1688C23.1727 3.17212 23.1726 3.17544 23.1725 3.17877L22.876 7.09745C22.8465 7.48702 22.8187 7.87581 22.791 8.26402C22.7289 9.13527 22.6669 10.0036 22.5856 10.8716L22.5856 10.8716C22.4839 11.9572 22.2802 13.0248 21.6292 13.8601C21.0472 14.6028 20.1794 15.1253 19.2522 15.4114C18.0006 15.7975 16.6522 15.7719 15.3267 15.6054L18.0513 17.4727ZM24.7338 10.9641C25.1763 11.9951 25.8056 12.939 26.5912 13.7499C27.4252 14.5866 28.4518 15.2145 29.5847 15.581" fill="#E05344" stroke="#E05344" stroke-width="0.5"/>
</svg>
